<svg xmlns="http://www.w3.org/2000/svg" xmlns:xlink="http://www.w3.org/1999/xlink" viewBox="0 0 38 34" width="38" height="34" preserveAspectRatio="xMidYMid meet" style="width: 100%; height: 100%; transform: translate3d(0px, 0px, 0px); content-visibility: visible;"><defs><clipPath id="__lottie_element_15"><rect width="38" height="34" x="0" y="0"></rect></clipPath></defs><g clip-path="url(#__lottie_element_15)"><g transform="matrix(1,0,0,1,-0.25,0.1359996795654297)" opacity="1" style="display: block;"><g opacity="1" transform="matrix(1,0,0,1,19.25,16.58300018310547)"><path fill="rgb(128,235,255)" fill-opacity="1" d=" M-16,-16.33300018310547 C-16,-16.33300018310547 16,-16.33300018310547 16,-16.33300018310547 C17.656999588012695,-16.33300018310547 19,-14.989999771118164 19,-13.333000183105469 C19,-13.333000183105469 19,13.333000183105469 19,13.333000183105469 C19,14.98900032043457 17.656999588012695,16.33300018310547 16,16.33300018310547 C16,16.33300018310547 -16,16.33300018310547 -16,16.33300018310547 C-17.656999588012695,16.33300018310547 -19,14.98900032043457 -19,13.333000183105469 C-19,13.333000183105469 -19,-13.333000183105469 -19,-13.333000183105469 C-19,-14.989999771118164 -17.656999588012695,-16.33300018310547 -16,-16.33300018310547z"></path></g></g><g transform="matrix(1,0,0,1,3.229999542236328,8.290999412536621)" opacity="1" style="display: block;"><g opacity="1" transform="matrix(1,0,0,1,15.770999908447266,10.831999778747559)"><path fill="rgb(255,255,255)" fill-opacity="1" d=" M-15.520999908447266,-10.581999778747559 C-15.520999908447266,-10.581999778747559 15.520999908447266,-10.581999778747559 15.520999908447266,-10.581999778747559 C15.520999908447266,-10.581999778747559 15.520999908447266,9.581999778747559 15.520999908447266,9.581999778747559 C15.520999908447266,10.133999824523926 15.072999954223633,10.581999778747559 14.520999908447266,10.581999778747559 C14.520999908447266,10.581999778747559 -14.520999908447266,10.581999778747559 -14.520999908447266,10.581999778747559 C-15.072999954223633,10.581999778747559 -15.520999908447266,10.133999824523926 -15.520999908447266,9.581999778747559 C-15.520999908447266,9.581999778747559 -15.520999908447266,-10.581999778747559 -15.520999908447266,-10.581999778747559z"></path></g></g><g transform="matrix(1,0,0,1,8.527000427246094,14.547000885009766)" opacity="1" style="display: block;"><g opacity="1" transform="matrix(1,0,0,1,0,0)"><path stroke-linecap="round" stroke-linejoin="miter" fill-opacity="0" stroke-miterlimit="4" stroke="rgb(128,235,255)" stroke-opacity="1" stroke-width="3" d=" M1.5,1.5 C1.5,1.5 19.44499969482422,1.5 19.44499969482422,1.5"></path></g></g><g transform="matrix(1,0,0,1,8.527000427246094,20.81100082397461)" opacity="1" style="display: block;"><g opacity="1" transform="matrix(1,0,0,1,0,0)"><path stroke-linecap="round" stroke-linejoin="miter" fill-opacity="0" stroke-miterlimit="4" stroke="rgb(190,245,255)" stroke-opacity="1" stroke-width="3" d=" M1.5,1.5 C1.5,1.5 19.44499969482422,1.5 19.44499969482422,1.5"></path></g></g><g transform="matrix(1,0,0,1,2.7080001831054688,2.552000045776367)" opacity="1" style="display: block;"><g opacity="1" transform="matrix(1,0,0,1,1.75,1.75)"><path fill="rgb(255,255,255)" fill-opacity="1" d=" M0,-1.5 C0.8289999961853027,-1.5 1.5,-0.8289999961853027 1.5,0 C1.5,0.8289999961853027 0.8289999961853027,1.5 0,1.5 C-0.8289999961853027,1.5 -1.5,0.8289999961853027 -1.5,0 C-1.5,-0.8289999961853027 -0.8289999961853027,-1.5 0,-1.5z"></path></g></g><g transform="matrix(1,0,0,1,7.140999794006348,2.552000045776367)" opacity="1" style="display: block;"><g opacity="1" transform="matrix(1,0,0,1,1.75,1.75)"><path fill="rgb(255,255,255)" fill-opacity="1" d=" M0,-1.5 C0.8289999961853027,-1.5 1.5,-0.8289999961853027 1.5,0 C1.5,0.8289999961853027 0.8289999961853027,1.5 0,1.5 C-0.8289999961853027,1.5 -1.5,0.8289999961853027 -1.5,0 C-1.5,-0.8289999961853027 -0.8289999961853027,-1.5 0,-1.5z"></path></g></g><g transform="matrix(1,0,0,1,13.067999839782715,13.297000885009766)" opacity="1" style="display: block;"><g opacity="1" transform="matrix(1,0,0,1,2.75,2.75)"><path fill="rgb(59,186,210)" fill-opacity="1" d=" M0,-2.5 C1.38100004196167,-2.5 2.5,-1.38100004196167 2.5,0 C2.5,1.38100004196167 1.38100004196167,2.5 0,2.5 C-1.38100004196167,2.5 -2.5,1.38100004196167 -2.5,0 C-2.5,-1.38100004196167 -1.38100004196167,-2.5 0,-2.5z"></path></g></g><g transform="matrix(1,0,0,1,20.523000717163086,19.56100082397461)" opacity="1" style="display: block;"><g opacity="1" transform="matrix(1,0,0,1,2.75,2.75)"><path fill="rgb(59,186,210)" fill-opacity="1" d=" M0,-2.5 C1.38100004196167,-2.5 2.5,-1.3799999952316284 2.5,0 C2.5,1.38100004196167 1.38100004196167,2.5 0,2.5 C-1.38100004196167,2.5 -2.5,1.38100004196167 -2.5,0 C-2.5,-1.3799999952316284 -1.38100004196167,-2.5 0,-2.5z"></path></g></g></g></svg>