<svg xmlns="http://www.w3.org/2000/svg" xmlns:xlink="http://www.w3.org/1999/xlink" viewBox="0 0 38 21" width="38" height="21" preserveAspectRatio="xMidYMid meet" style="width: 100%; height: 100%; transform: translate3d(0px, 0px, 0px); content-visibility: visible;"><defs><clipPath id="__lottie_element_4"><rect width="38" height="21" x="0" y="0"></rect></clipPath></defs><g clip-path="url(#__lottie_element_4)"><g transform="matrix(1,0,0,1,26.586999893188477,0.7769994735717773)" opacity="1" style="display: block;"><g opacity="1" transform="matrix(1,0,0,1,5.830999851226807,9.916000366210938)"><path fill="rgb(128,235,255)" fill-opacity="1" d=" M-4.929999828338623,6.589000225067139 C-4.929999828338623,6.589000225067139 1.5509999990463257,-0.00800000037997961 1.5509999990463257,-0.00800000037997961 C1.5509999990463257,-0.00800000037997961 -4.929999828338623,-6.605000019073486 -4.929999828338623,-6.605000019073486 C-5.242000102996826,-6.921999931335449 -5.418000221252441,-7.355000019073486 -5.418000221252441,-7.804999828338623 C-5.418000221252441,-8.253999710083008 -5.242000102996826,-8.6850004196167 -4.929999828338623,-9.003000259399414 C-4.2789998054504395,-9.666000366210938 -3.2260000705718994,-9.666000366210938 -2.575000047683716,-9.003000259399414 C-2.575000047683716,-9.003000259399414 5.0929999351501465,-1.1990000009536743 5.0929999351501465,-1.1990000009536743 C5.744999885559082,-0.5360000133514404 5.744999885559082,0.5360000133514404 5.0929999351501465,1.1990000009536743 C5.0929999351501465,1.1990000009536743 -2.575000047683716,9.003000259399414 -2.575000047683716,9.003000259399414 C-3.2260000705718994,9.666000366210938 -4.2789998054504395,9.666000366210938 -4.929999828338623,9.003000259399414 C-5.565000057220459,8.34000015258789 -5.580999851226807,7.251999855041504 -4.929999828338623,6.589000225067139z"></path></g></g><g transform="matrix(1,0,0,1,-0.41300010681152344,0.7769994735717773)" opacity="1" style="display: block;"><g opacity="1" transform="matrix(1,0,0,1,5.99399995803833,9.916000366210938)"><path fill="rgb(128,235,255)" fill-opacity="1" d=" M4.929999828338623,6.589000225067139 C4.929999828338623,6.589000225067139 -1.5509999990463257,-0.00800000037997961 -1.5509999990463257,-0.00800000037997961 C-1.5509999990463257,-0.00800000037997961 4.929999828338623,-6.605000019073486 4.929999828338623,-6.605000019073486 C5.243000030517578,-6.921999931335449 5.419000148773193,-7.355000019073486 5.419000148773193,-7.804999828338623 C5.419000148773193,-8.253999710083008 5.243000030517578,-8.6850004196167 4.929999828338623,-9.003000259399414 C4.2789998054504395,-9.666000366210938 3.2260000705718994,-9.666000366210938 2.575000047683716,-9.003000259399414 C2.575000047683716,-9.003000259399414 -5.0920000076293945,-1.1990000009536743 -5.0920000076293945,-1.1990000009536743 C-5.74399995803833,-0.5360000133514404 -5.74399995803833,0.5360000133514404 -5.0920000076293945,1.1990000009536743 C-5.0920000076293945,1.1990000009536743 2.575000047683716,9.003000259399414 2.575000047683716,9.003000259399414 C3.2260000705718994,9.666000366210938 4.2789998054504395,9.666000366210938 4.929999828338623,9.003000259399414 C5.565000057220459,8.34000015258789 5.581999778747559,7.251999855041504 4.929999828338623,6.589000225067139z"></path></g></g><g transform="matrix(1,0,0,1,13.5,0.6929998397827148)" opacity="0.9999975656178031" style="display: block;"><g opacity="1" transform="matrix(1,0,0,1,5.75,10)"><path stroke-linecap="round" stroke-linejoin="miter" fill-opacity="0" stroke-miterlimit="4" stroke="rgb(59,186,210)" stroke-opacity="1" stroke-width="4" d=" M3.75,-8 C3.75,-8 -3.75,8 -3.75,8"></path></g></g></g></svg>